# xmcd
#
# Track frame offsets:
#  225
#  10746
#  25749
#  39261
#  54320
#  65958
#  79322
#  91706
#  106252
#  121125
#  133145
#  144714
#  159201
#  172131
#  184702
#  197169
#  209960
#
# Disc length: 2967 seconds
#
# Revision: 0
# Processed by: cddbd v1.5.1PL2 Copyright (c) Steve Scherf et al.
# Submitted via: Collectorz.com_Music_Collector 6.10
#
DISCID=ee0b9411
DTITLE=Various Artist - Back To The 50's [CD1)
DYEAR=1998
DGENRE=Rock And Roll
TTITLE0=Fats Domino - The Fat Man
TTITLE1=Billy Eckstine - I Apologise
TTITLE2=Patti Page - The Tennessee Waltz
TTITLE3=Dinah Washington - Cold, Cold Heart
TTITLE4=Frankie Laine - Mule Train
TTITLE5=Dinah Washington - Tell Me Why
TTITLE6=Fats Domino - Goin' Home
TTITLE7=Orioles - Tell Me So
TTITLE8=Frankie Laine - Jezebel
TTITLE9=Patti Page - Mockin' Bird Hill
TTITLE10=Spaniels - Baby It's You
TTITLE11=Frankie Laine - Jealouise
TTITLE12=Frankie Laine - I Went To Your Wedding
TTITLE13=Frankie Laine - High Noon
TTITLE14=Edna McGriff - Heavenly
TTITLE15=Dinah Washington - I Wanna Be Loved
TTITLE16=Dinah Washington - Baby Get Lost
EXTD=
EXTT0=
EXTT1=
EXTT2=
EXTT3=
EXTT4=
EXTT5=
EXTT6=
EXTT7=
EXTT8=
EXTT9=
EXTT10=
EXTT11=
EXTT12=
EXTT13=
EXTT14=
EXTT15=
EXTT16=
PLAYORDER=
